<svg width="50" height="45" viewBox="0 0 50 45" fill="none" xmlns="http://www.w3.org/2000/svg">
<g filter="url(#filter0_f)">
<path d="M40.5127 32.6331C41.0133 32.0196 40.5621 31.1398 39.7704 31.1268C29.664 30.9604 21.2118 31.1472 10.7582 31.7832C9.96742 31.8314 9.55522 32.7311 10.0832 33.3217C13.7464 37.4201 19.0738 40 25.0039 40C31.2595 40 36.8446 37.1291 40.5127 32.6331Z" stroke="#4C4CFF" stroke-linecap="round" stroke-linejoin="round"/>
<path d="M7.64272 10.0579C7.25238 10.7378 7.82746 11.5294 8.60585 11.436C20.1726 10.048 28.6979 9.63407 40.7882 10.3703C41.5749 10.4182 42.1044 9.58733 41.6676 8.93129C38.0829 3.54757 31.9578 0 25.0039 0C17.5757 0 11.0932 4.04797 7.64272 10.0579Z" stroke="#4C4CFF" stroke-linecap="round" stroke-linejoin="round"/>
</g>
<g filter="url(#filter1_f)">
<path d="M40.5127 32.6331C41.0133 32.0196 40.5621 31.1398 39.7704 31.1268C29.664 30.9604 21.2118 31.1472 10.7582 31.7832C9.96742 31.8314 9.55522 32.7311 10.0832 33.3217C13.7464 37.4201 19.0738 40 25.0039 40C31.2595 40 36.8446 37.1291 40.5127 32.6331Z" stroke="#4C4CFF" stroke-linecap="round" stroke-linejoin="round"/>
<path d="M7.64272 10.0579C7.25238 10.7378 7.82746 11.5294 8.60585 11.436C20.1726 10.048 28.6979 9.63407 40.7882 10.3703C41.5749 10.4182 42.1044 9.58733 41.6676 8.93129C38.0829 3.54757 31.9578 0 25.0039 0C17.5757 0 11.0932 4.04797 7.64272 10.0579Z" stroke="#4C4CFF" stroke-linecap="round" stroke-linejoin="round"/>
</g>
<path d="M40.5127 32.6331C41.0133 32.0196 40.5621 31.1398 39.7704 31.1268C29.664 30.9604 21.2118 31.1472 10.7582 31.7832C9.96742 31.8314 9.55522 32.7311 10.0832 33.3217C13.7464 37.4201 19.0738 40 25.0039 40C31.2595 40 36.8446 37.1291 40.5127 32.6331Z" stroke="#4C4CFF" stroke-linecap="round" stroke-linejoin="round"/>
<path d="M7.64272 10.0579C7.25238 10.7378 7.82746 11.5294 8.60585 11.436C20.1726 10.048 28.6979 9.63407 40.7882 10.3703C41.5749 10.4182 42.1044 9.58733 41.6676 8.93129C38.0829 3.54757 31.9578 0 25.0039 0C17.5757 0 11.0932 4.04797 7.64272 10.0579Z" stroke="#4C4CFF" stroke-linecap="round" stroke-linejoin="round"/>
<path d="M40.5127 32.6331C41.0133 32.0196 40.5621 31.1398 39.7704 31.1268C29.664 30.9604 21.2118 31.1472 10.7582 31.7832C9.96742 31.8314 9.55522 32.7311 10.0832 33.3217C13.7464 37.4201 19.0738 40 25.0039 40C31.2595 40 36.8446 37.1291 40.5127 32.6331Z" stroke="white" stroke-width="0.5" stroke-linecap="round" stroke-linejoin="round"/>
<path d="M7.64272 10.0579C7.25238 10.7378 7.82746 11.5294 8.60585 11.436C20.1726 10.048 28.6979 9.63407 40.7882 10.3703C41.5749 10.4182 42.1044 9.58733 41.6676 8.93129C38.0829 3.54757 31.9578 0 25.0039 0C17.5757 0 11.0932 4.04797 7.64272 10.0579Z" stroke="white" stroke-width="0.5" stroke-linecap="round" stroke-linejoin="round"/>
<g filter="url(#filter2_f)">
<path d="M44.8593 22.4656C44.9878 21.4133 44.172 20.5115 43.1153 20.4264C30.2353 19.3883 20.1843 19.2251 6.88969 19.9245C5.83054 19.9802 4.98957 20.8596 5.08911 21.9156C5.23042 23.4145 5.5372 24.8654 5.99099 26.2496C6.2525 27.0473 7.03156 27.5408 7.87056 27.5118C20.3831 27.0783 30.0602 27.0468 42.1958 27.3747C43.0353 27.3973 43.8109 26.8976 44.0661 26.0975C44.4385 24.9298 44.7065 23.7155 44.8593 22.4656Z" stroke="#E33CD5" stroke-linecap="round" stroke-linejoin="round"/>
</g>
<g filter="url(#filter3_f)">
<path d="M44.8593 22.4656C44.9878 21.4133 44.172 20.5115 43.1153 20.4264C30.2353 19.3883 20.1843 19.2251 6.88969 19.9245C5.83054 19.9802 4.98957 20.8596 5.08911 21.9156C5.23042 23.4145 5.5372 24.8654 5.99099 26.2496C6.2525 27.0473 7.03156 27.5408 7.87056 27.5118C20.3831 27.0783 30.0602 27.0468 42.1958 27.3747C43.0353 27.3973 43.8109 26.8976 44.0661 26.0975C44.4385 24.9298 44.7065 23.7155 44.8593 22.4656Z" stroke="#E33CD5" stroke-linecap="round" stroke-linejoin="round"/>
</g>
<path d="M44.8593 22.4656C44.9878 21.4133 44.172 20.5115 43.1153 20.4264C30.2353 19.3883 20.1843 19.2251 6.88969 19.9245C5.83054 19.9802 4.98957 20.8596 5.08911 21.9156C5.23042 23.4145 5.5372 24.8654 5.99099 26.2496C6.2525 27.0473 7.03156 27.5408 7.87056 27.5118C20.3831 27.0783 30.0602 27.0468 42.1958 27.3747C43.0353 27.3973 43.8109 26.8976 44.0661 26.0975C44.4385 24.9298 44.7065 23.7155 44.8593 22.4656Z" stroke="#E33CD5" stroke-linecap="round" stroke-linejoin="round"/>
<path d="M44.8593 22.4656C44.9878 21.4133 44.172 20.5115 43.1153 20.4264C30.2353 19.3883 20.1843 19.2251 6.88969 19.9245C5.83054 19.9802 4.98957 20.8596 5.08911 21.9156C5.23042 23.4145 5.5372 24.8654 5.99099 26.2496C6.2525 27.0473 7.03156 27.5408 7.87056 27.5118C20.3831 27.0783 30.0602 27.0468 42.1958 27.3747C43.0353 27.3973 43.8109 26.8976 44.0661 26.0975C44.4385 24.9298 44.7065 23.7155 44.8593 22.4656Z" stroke="white" stroke-width="0.5" stroke-linecap="round" stroke-linejoin="round"/>
<g filter="url(#filter4_f)">
<path d="M5 15.5C7.66667 13.5 10.3333 13.5 13 15.5C15.6667 17.5 18.3333 17.5 21 15.5C23.6667 13.5 26.3333 13.5 29 15.5C31.6667 17.5 34.3333 17.5 37 15.5C39.6667 13.5 42.3333 13.5 45 15.5" stroke="#00CCCC" stroke-linecap="round" stroke-linejoin="round"/>
</g>
<g filter="url(#filter5_f)">
<path d="M5 15.5C7.66667 13.5 10.3333 13.5 13 15.5C15.6667 17.5 18.3333 17.5 21 15.5C23.6667 13.5 26.3333 13.5 29 15.5C31.6667 17.5 34.3333 17.5 37 15.5C39.6667 13.5 42.3333 13.5 45 15.5" stroke="#00CCCC" stroke-linecap="round" stroke-linejoin="round"/>
</g>
<path d="M5 15.5C7.66667 13.5 10.3333 13.5 13 15.5C15.6667 17.5 18.3333 17.5 21 15.5C23.6667 13.5 26.3333 13.5 29 15.5C31.6667 17.5 34.3333 17.5 37 15.5C39.6667 13.5 42.3333 13.5 45 15.5" stroke="#00CCCC" stroke-linecap="round" stroke-linejoin="round"/>
<path d="M5 15.5C7.66667 13.5 10.3333 13.5 13 15.5C15.6667 17.5 18.3333 17.5 21 15.5C23.6667 13.5 26.3333 13.5 29 15.5C31.6667 17.5 34.3333 17.5 37 15.5C39.6667 13.5 42.3333 13.5 45 15.5" stroke="white" stroke-width="0.5" stroke-linecap="round" stroke-linejoin="round"/>
<g filter="url(#filter6_f)">
<ellipse rx="1" ry="0.75" transform="matrix(0.885492 0.464655 0.464655 -0.885492 18.234 34.9812)" stroke="#4C4CFF"/>
<ellipse cx="33.7076" cy="6.35415" rx="1.5" ry="1" transform="rotate(15 33.7076 6.35415)" stroke="#4C4CFF"/>
<ellipse rx="1" ry="0.75" transform="matrix(0.965926 -0.258819 -0.258819 -0.965926 31.16 34.9833)" stroke="#4C4CFF"/>
<ellipse cx="23.5" cy="7" rx="1.5" ry="1" transform="rotate(180 23.5 7)" stroke="#4C4CFF"/>
<ellipse cx="27.7076" cy="3.35415" rx="1.5" ry="1" transform="rotate(15 27.7076 3.35415)" stroke="#4C4CFF"/>
<ellipse rx="1" ry="0.75" transform="matrix(1 0 0 -1 25 36.75)" stroke="#4C4CFF"/>
<ellipse cx="16.7929" cy="5.58255" rx="1.5" ry="1" transform="rotate(-27.6879 16.7929 5.58255)" stroke="#4C4CFF"/>
</g>
<g filter="url(#filter7_f)">
<ellipse rx="1" ry="0.75" transform="matrix(0.885492 0.464655 0.464655 -0.885492 18.234 34.9812)" stroke="#4C4CFF"/>
<ellipse cx="33.7076" cy="6.35415" rx="1.5" ry="1" transform="rotate(15 33.7076 6.35415)" stroke="#4C4CFF"/>
<ellipse rx="1" ry="0.75" transform="matrix(0.965926 -0.258819 -0.258819 -0.965926 31.16 34.9833)" stroke="#4C4CFF"/>
<ellipse cx="23.5" cy="7" rx="1.5" ry="1" transform="rotate(180 23.5 7)" stroke="#4C4CFF"/>
<ellipse cx="27.7076" cy="3.35415" rx="1.5" ry="1" transform="rotate(15 27.7076 3.35415)" stroke="#4C4CFF"/>
<ellipse rx="1" ry="0.75" transform="matrix(1 0 0 -1 25 36.75)" stroke="#4C4CFF"/>
<ellipse cx="16.7929" cy="5.58255" rx="1.5" ry="1" transform="rotate(-27.6879 16.7929 5.58255)" stroke="#4C4CFF"/>
</g>
<ellipse rx="1" ry="0.75" transform="matrix(0.885492 0.464655 0.464655 -0.885492 18.234 34.9812)" stroke="#4C4CFF"/>
<ellipse cx="33.7076" cy="6.35415" rx="1.5" ry="1" transform="rotate(15 33.7076 6.35415)" stroke="#4C4CFF"/>
<ellipse rx="1" ry="0.75" transform="matrix(0.965926 -0.258819 -0.258819 -0.965926 31.16 34.9833)" stroke="#4C4CFF"/>
<ellipse cx="23.5" cy="7" rx="1.5" ry="1" transform="rotate(180 23.5 7)" stroke="#4C4CFF"/>
<ellipse cx="27.7076" cy="3.35415" rx="1.5" ry="1" transform="rotate(15 27.7076 3.35415)" stroke="#4C4CFF"/>
<ellipse rx="1" ry="0.75" transform="matrix(1 0 0 -1 25 36.75)" stroke="#4C4CFF"/>
<ellipse cx="16.7929" cy="5.58255" rx="1.5" ry="1" transform="rotate(-27.6879 16.7929 5.58255)" stroke="#4C4CFF"/>
<ellipse rx="1" ry="0.75" transform="matrix(0.885492 0.464655 0.464655 -0.885492 18.234 34.9812)" stroke="white" stroke-width="0.5"/>
<ellipse cx="33.7076" cy="6.35415" rx="1.5" ry="1" transform="rotate(15 33.7076 6.35415)" stroke="white" stroke-width="0.5"/>
<ellipse rx="1" ry="0.75" transform="matrix(0.965926 -0.258819 -0.258819 -0.965926 31.16 34.9833)" stroke="white" stroke-width="0.5"/>
<ellipse cx="23.5" cy="7" rx="1.5" ry="1" transform="rotate(180 23.5 7)" stroke="white" stroke-width="0.5"/>
<ellipse cx="27.7076" cy="3.35415" rx="1.5" ry="1" transform="rotate(15 27.7076 3.35415)" stroke="white" stroke-width="0.5"/>
<ellipse rx="1" ry="0.75" transform="matrix(1 0 0 -1 25 36.75)" stroke="white" stroke-width="0.5"/>
<ellipse cx="16.7929" cy="5.58255" rx="1.5" ry="1" transform="rotate(-27.6879 16.7929 5.58255)" stroke="white" stroke-width="0.5"/>
<defs>
<filter id="filter0_f" x="3.01208" y="-4.5" width="43.3185" height="49" filterUnits="userSpaceOnUse" color-interpolation-filters="sRGB">
<feFlood flood-opacity="0" result="BackgroundImageFix"/>
<feBlend mode="normal" in="SourceGraphic" in2="BackgroundImageFix" result="shape"/>
<feGaussianBlur stdDeviation="2" result="effect1_foregroundBlur"/>
</filter>
<filter id="filter1_f" x="3.01208" y="-4.5" width="43.3185" height="49" filterUnits="userSpaceOnUse" color-interpolation-filters="sRGB">
<feFlood flood-opacity="0" result="BackgroundImageFix"/>
<feBlend mode="normal" in="SourceGraphic" in2="BackgroundImageFix" result="shape"/>
<feGaussianBlur stdDeviation="2" result="effect1_foregroundBlur"/>
</filter>
<filter id="filter2_f" x="0.580933" y="15" width="48.792" height="17.013" filterUnits="userSpaceOnUse" color-interpolation-filters="sRGB">
<feFlood flood-opacity="0" result="BackgroundImageFix"/>
<feBlend mode="normal" in="SourceGraphic" in2="BackgroundImageFix" result="shape"/>
<feGaussianBlur stdDeviation="2" result="effect1_foregroundBlur"/>
</filter>
<filter id="filter3_f" x="0.580933" y="15" width="48.792" height="17.013" filterUnits="userSpaceOnUse" color-interpolation-filters="sRGB">
<feFlood flood-opacity="0" result="BackgroundImageFix"/>
<feBlend mode="normal" in="SourceGraphic" in2="BackgroundImageFix" result="shape"/>
<feGaussianBlur stdDeviation="2" result="effect1_foregroundBlur"/>
</filter>
<filter id="filter4_f" x="0.5" y="9.5" width="49.0001" height="12" filterUnits="userSpaceOnUse" color-interpolation-filters="sRGB">
<feFlood flood-opacity="0" result="BackgroundImageFix"/>
<feBlend mode="normal" in="SourceGraphic" in2="BackgroundImageFix" result="shape"/>
<feGaussianBlur stdDeviation="2" result="effect1_foregroundBlur"/>
</filter>
<filter id="filter5_f" x="0.5" y="9.5" width="49.0001" height="12" filterUnits="userSpaceOnUse" color-interpolation-filters="sRGB">
<feFlood flood-opacity="0" result="BackgroundImageFix"/>
<feBlend mode="normal" in="SourceGraphic" in2="BackgroundImageFix" result="shape"/>
<feGaussianBlur stdDeviation="2" result="effect1_foregroundBlur"/>
</filter>
<filter id="filter6_f" x="10.325" y="-2.6123" width="29.7028" height="44.6123" filterUnits="userSpaceOnUse" color-interpolation-filters="sRGB">
<feFlood flood-opacity="0" result="BackgroundImageFix"/>
<feBlend mode="normal" in="SourceGraphic" in2="BackgroundImageFix" result="shape"/>
<feGaussianBlur stdDeviation="2" result="effect1_foregroundBlur"/>
</filter>
<filter id="filter7_f" x="10.325" y="-2.6123" width="29.7028" height="44.6123" filterUnits="userSpaceOnUse" color-interpolation-filters="sRGB">
<feFlood flood-opacity="0" result="BackgroundImageFix"/>
<feBlend mode="normal" in="SourceGraphic" in2="BackgroundImageFix" result="shape"/>
<feGaussianBlur stdDeviation="2" result="effect1_foregroundBlur"/>
</filter>
</defs>
</svg>
